<?xml version="1.0" encoding="UTF-8"?>
<svg width="181.425" height="181.425" viewBox="0 0 181.425 181.425" xmlns="http://www.w3.org/2000/svg">
  <circle cx="90.712326" cy="90.712326" r="90.712326" fill="#00ffff" />
  <g transform="translate(1.1869322,-14.161237)">
    <path d="m 111.6795,78.240258 50.19909,-17.472882 -60.64221,6.35948 -3.923833,104.404794 10.044393,-58.34149 35.17081,-1.71938 -32.93701,-11.21999 2.08876,-22.010532" fill="#2b1100" stroke="#008080" stroke-width="8.2" stroke-linecap="round" stroke-linejoin="round" />
    <path d="m 65.830756,82.368003 -48.6555,2.337305 m 0,0 L 115.22931,38.220274 82.011152,74.200566 105,141.29962 65.830757,82.368004" fill="#2b1100" stroke="#008080" stroke-width="8.2" stroke-linecap="round" stroke-linejoin="round" />
    <path d="m 111.6795,78.240258 50.19909,-17.472882 -60.64221,6.35948 -3.923833,104.404794 10.044393,-58.34149 35.17081,-1.71938 -32.93701,-11.21999 2.08876,-22.010532" fill="#ffff00" />
    <path d="m 65.830756,82.368003 -48.6555,2.337305 m 0,0 L 115.22931,38.220274 82.011152,74.200566 105,141.29962 65.830757,82.368004" fill="#ffff00" />
  </g>
</svg>
